<svg width="16" height="16" viewBox="0 0 16 16" fill="none" xmlns="http://www.w3.org/2000/svg">
<g clip-path="url(#clip0_5_3290)">
<path d="M4.66667 3.99999V1.99999C4.66667 1.82318 4.7369 1.65361 4.86193 1.52859C4.98695 1.40357 5.15652 1.33333 5.33333 1.33333H13.3333C13.5101 1.33333 13.6797 1.40357 13.8047 1.52859C13.9298 1.65361 14 1.82318 14 1.99999V11.3333C14 11.5101 13.9298 11.6797 13.8047 11.8047C13.6797 11.9298 13.5101 12 13.3333 12H11.3333V14C11.3333 14.368 11.0333 14.6667 10.662 14.6667H2.67133C2.58342 14.6672 2.49626 14.6503 2.41488 14.6171C2.3335 14.5838 2.25949 14.5348 2.19711 14.4729C2.13472 14.4109 2.0852 14.3372 2.05137 14.2561C2.01754 14.1749 2.00009 14.0879 2 14L2.002 4.66666C2.002 4.29866 2.302 3.99999 2.67333 3.99999H4.66667ZM3.33533 5.33333L3.33333 13.3333H10V5.33333H3.33533ZM6 3.99999H11.3333V10.6667H12.6667V2.66666H6V3.99999Z" fill="#0D2ED3"/>
</g>
<defs>
<clipPath id="clip0_5_3290">
<rect width="16" height="16" fill="white"/>
</clipPath>
</defs>
</svg>
